<svg width="38" height="36" viewBox="0 0 38 36" fill="none" xmlns="http://www.w3.org/2000/svg">
<path d="M15 5.5H22.5V9.25H15V5.5ZM14.0625 1.75C12.5098 1.75 11.25 3.00977 11.25 4.5625V10.1875C11.25 11.7402 12.5098 13 14.0625 13H16.875V14.875H1.875C0.837891 14.875 0 15.7129 0 16.75C0 17.7871 0.837891 18.625 1.875 18.625H7.5V20.5H4.6875C3.13477 20.5 1.875 21.7598 1.875 23.3125V28.9375C1.875 30.4902 3.13477 31.75 4.6875 31.75H14.0625C15.6152 31.75 16.875 30.4902 16.875 28.9375V23.3125C16.875 21.7598 15.6152 20.5 14.0625 20.5H11.25V18.625H26.25V20.5H23.4375C21.8848 20.5 20.625 21.7598 20.625 23.3125V28.9375C20.625 30.4902 21.8848 31.75 23.4375 31.75H32.8125C34.3652 31.75 35.625 30.4902 35.625 28.9375V23.3125C35.625 21.7598 34.3652 20.5 32.8125 20.5H30V18.625H35.625C36.6621 18.625 37.5 17.7871 37.5 16.75C37.5 15.7129 36.6621 14.875 35.625 14.875H20.625V13H23.4375C24.9902 13 26.25 11.7402 26.25 10.1875V4.5625C26.25 3.00977 24.9902 1.75 23.4375 1.75H14.0625ZM5.625 28V24.25H13.125V28H5.625ZM24.375 24.25H31.875V28H24.375V24.25Z" fill="#8636CC"/>
</svg>
